<?xml version="1.0" encoding="UTF-8"?>
<svg xmlns="http://www.w3.org/2000/svg" xmlns:xlink="http://www.w3.org/1999/xlink" viewBox="0 0 24 24" version="1.1" width="24px" height="24px">
<g id="surface1">
<path style=" " d="M 5 3 C 3.898438 3 3 3.898438 3 5 L 3 12.3125 L 6.59375 13.5 C 7.292969 12.601563 8.304688 12 9.40625 12 L 11 9.5 L 11 9 C 11 6.800781 12.800781 5 15 5 C 17.199219 5 19 6.800781 19 9 C 19 11.101563 17.289063 12.898438 15.1875 13 L 13 15 L 13 15.5 C 13 17.398438 11.398438 19 9.5 19 C 7.601563 19 6 17.398438 6 15.5 L 6 15.40625 L 3 14.40625 L 3 19 C 3 20.101563 3.898438 21 5 21 L 19 21 C 20.101563 21 21 20.101563 21 19 L 21 5 C 21 3.898438 20.101563 3 19 3 Z M 15 6 C 13.347656 6 12 7.347656 12 9 C 12 10.652344 13.347656 12 15 12 C 16.652344 12 18 10.652344 18 9 C 18 7.347656 16.652344 6 15 6 Z M 15 7 C 16.109375 7 17 7.890625 17 9 C 17 10.109375 16.109375 11 15 11 C 13.890625 11 13 10.109375 13 9 C 13 7.890625 13.890625 7 15 7 Z M 9.5 13 C 8.800781 13 8.085938 13.3125 7.6875 13.8125 L 9.90625 14.5 C 10.40625 14.699219 10.699219 15.210938 10.5 15.8125 C 10.300781 16.210938 9.898438 16.5 9.5 16.5 C 9.398438 16.5 9.289063 16.507813 9.1875 16.40625 L 7 15.6875 C 7.101563 16.988281 8.199219 18 9.5 18 C 10.898438 18 12 16.898438 12 15.5 C 12 14.101563 10.898438 13 9.5 13 Z "/>
</g>
</svg>
